<svg width="20" height="24" viewBox="0 0 20 24" fill="none" xmlns="http://www.w3.org/2000/svg">
<path d="M17.68 0.48H2.31999C1.26399 0.48 0.399994 1.344 0.399994 2.4V21.6C0.399994 22.656 1.26399 23.52 2.31999 23.52H17.68C18.736 23.52 19.6 22.656 19.6 21.6V2.4C19.6 1.344 18.736 0.48 17.68 0.48ZM6.15999 19.68C6.15999 20.208 5.72799 20.64 5.19999 20.64H3.27999C2.75199 20.64 2.31999 20.208 2.31999 19.68V19.2C2.31999 18.672 2.75199 18.24 3.27999 18.24H5.19999C5.72799 18.24 6.15999 18.672 6.15999 19.2V19.68ZM6.15999 15.84C6.15999 16.368 5.72799 16.8 5.19999 16.8H3.27999C2.75199 16.8 2.31999 16.368 2.31999 15.84V15.36C2.31999 14.832 2.75199 14.4 3.27999 14.4H5.19999C5.72799 14.4 6.15999 14.832 6.15999 15.36V15.84ZM6.15999 12C6.15999 12.528 5.72799 12.96 5.19999 12.96H3.27999C2.75199 12.96 2.31999 12.528 2.31999 12V11.52C2.31999 10.992 2.75199 10.56 3.27999 10.56H5.19999C5.72799 10.56 6.15999 10.992 6.15999 11.52V12ZM11.92 19.68C11.92 20.208 11.488 20.64 10.96 20.64H9.03999C8.51199 20.64 8.07999 20.208 8.07999 19.68V19.2C8.07999 18.672 8.51199 18.24 9.03999 18.24H10.96C11.488 18.24 11.92 18.672 11.92 19.2V19.68ZM11.92 15.84C11.92 16.368 11.488 16.8 10.96 16.8H9.03999C8.51199 16.8 8.07999 16.368 8.07999 15.84V15.36C8.07999 14.832 8.51199 14.4 9.03999 14.4H10.96C11.488 14.4 11.92 14.832 11.92 15.36V15.84ZM11.92 12C11.92 12.528 11.488 12.96 10.96 12.96H9.03999C8.51199 12.96 8.07999 12.528 8.07999 12V11.52C8.07999 10.992 8.51199 10.56 9.03999 10.56H10.96C11.488 10.56 11.92 10.992 11.92 11.52V12ZM17.68 19.68C17.68 20.208 17.248 20.64 16.72 20.64H14.8C14.272 20.64 13.84 20.208 13.84 19.68V19.2C13.84 18.672 14.272 18.24 14.8 18.24H16.72C17.248 18.24 17.68 18.672 17.68 19.2V19.68ZM17.68 15.84C17.68 16.368 17.248 16.8 16.72 16.8H14.8C14.272 16.8 13.84 16.368 13.84 15.84V15.36C13.84 14.832 14.272 14.4 14.8 14.4H16.72C17.248 14.4 17.68 14.832 17.68 15.36V15.84ZM17.68 12C17.68 12.528 17.248 12.96 16.72 12.96H14.8C14.272 12.96 13.84 12.528 13.84 12V11.52C13.84 10.992 14.272 10.56 14.8 10.56H16.72C17.248 10.56 17.68 10.992 17.68 11.52V12ZM17.68 7.68C17.68 8.208 17.248 8.64 16.72 8.64H3.27999C2.75199 8.64 2.31999 8.208 2.31999 7.68V3.84C2.31999 3.312 2.75199 2.88 3.27999 2.88H16.72C17.248 2.88 17.68 3.312 17.68 3.84V7.68Z" fill="#9C9C9C"/>
</svg>
