<svg width="24" height="22" viewBox="0 0 24 22" fill="none" xmlns="http://www.w3.org/2000/svg">
<path d="M1.5 0.5H22.5C23.3297 0.5 24 1.17031 24 2V3.5C24 4.32969 23.3297 5 22.5 5H1.5C0.670312 5 0 4.32969 0 3.5V2C0 1.17031 0.670312 0.5 1.5 0.5ZM1.5 6.5H22.5V18.5C22.5 20.1547 21.1547 21.5 19.5 21.5H4.5C2.84531 21.5 1.5 20.1547 1.5 18.5V6.5ZM7.5 10.25C7.5 10.6625 7.8375 11 8.25 11H15.75C16.1625 11 16.5 10.6625 16.5 10.25C16.5 9.8375 16.1625 9.5 15.75 9.5H8.25C7.8375 9.5 7.5 9.8375 7.5 10.25Z" fill="#9C9C9C"/>
</svg>
