<svg width="24" height="24" viewBox="0 0 24 24" fill="none" xmlns="http://www.w3.org/2000/svg">
<path opacity="0.8" d="M12.9 2.518L12.87 2.588L9.97 9.318H7.12C6.44 9.318 5.8 9.448 5.2 9.708L6.95 5.528L6.99 5.438L7.05 5.278C7.08 5.208 7.1 5.148 7.13 5.098C8.44 2.068 9.92 1.378 12.9 2.518Z" fill="#969BA0"/>
<path d="M18.289 9.52C17.839 9.39 17.369 9.32 16.879 9.32H9.96899L12.869 2.59L12.899 2.52C13.039 2.57 13.189 2.64 13.339 2.69L15.549 3.62C16.779 4.13 17.639 4.66 18.169 5.3C18.259 5.42 18.339 5.53 18.419 5.66C18.509 5.8 18.579 5.94 18.619 6.09C18.659 6.18 18.689 6.26 18.709 6.35C18.969 7.2 18.809 8.23 18.289 9.52Z" fill="#969BA0"/>
<path opacity="0.4" d="M21.758 14.2V16.15C21.758 16.35 21.748 16.55 21.738 16.74C21.548 20.24 19.598 22 15.898 22H8.09801C7.84801 22 7.61801 21.98 7.38801 21.95C4.20801 21.74 2.50801 20.04 2.28801 16.86C2.25801 16.62 2.23801 16.39 2.23801 16.15V14.2C2.23801 12.19 3.45801 10.46 5.19801 9.71001C5.79801 9.45001 6.43801 9.32001 7.11801 9.32001H16.878C17.368 9.32001 17.838 9.39001 18.288 9.52001C19.2911 9.82606 20.1695 10.4459 20.7941 11.2883C21.4187 12.1307 21.7566 13.1513 21.758 14.2Z" fill="#969BA0"/>
<path opacity="0.6" d="M6.94801 5.53101L5.19801 9.71101C4.32012 10.0887 3.57201 10.7151 3.046 11.513C2.52 12.3109 2.23911 13.2453 2.23801 14.201V11.271C2.23801 8.43101 4.25801 6.06101 6.94801 5.53101ZM21.76 11.27V14.2C21.7586 13.1513 21.4207 12.1307 20.7961 11.2883C20.1715 10.4459 19.2931 9.82606 18.29 9.52001C18.81 8.23001 18.97 7.20001 18.71 6.35001C18.69 6.26001 18.66 6.18001 18.62 6.09001C19.567 6.58377 20.3605 7.32777 20.9141 8.24107C21.4677 9.15438 21.7603 10.202 21.76 11.27Z" fill="#969BA0"/>
</svg>
