<svg width="22" height="16" viewBox="0 0 22 16" fill="none" xmlns="http://www.w3.org/2000/svg">
<path d="M3.932 0.285721C3.07952 0.285721 2.26195 0.624368 1.65915 1.22716C1.05636 1.82996 0.717712 2.64753 0.717712 3.50001V4.14286H21.2857V3.50001C21.2857 2.64753 20.9471 1.82996 20.3443 1.22716C19.7415 0.624368 18.9239 0.285721 18.0714 0.285721H3.932ZM0.717712 12.5V5.42858H21.2857V12.5C21.2857 13.3525 20.9471 14.1701 20.3443 14.7729C19.7415 15.3756 18.9239 15.7143 18.0714 15.7143H3.93286C3.08037 15.7143 2.26281 15.3756 1.66001 14.7729C1.05722 14.1701 0.71857 13.3525 0.71857 12.5H0.717712ZM14.6429 10.1429C14.4724 10.1429 14.3088 10.2106 14.1883 10.3312C14.0677 10.4517 14 10.6152 14 10.7857C14 10.9562 14.0677 11.1197 14.1883 11.2403C14.3088 11.3608 14.4724 11.4286 14.6429 11.4286H17.6429C17.8134 11.4286 17.9769 11.3608 18.0974 11.2403C18.218 11.1197 18.2857 10.9562 18.2857 10.7857C18.2857 10.6152 18.218 10.4517 18.0974 10.3312C17.9769 10.2106 17.8134 10.1429 17.6429 10.1429H14.6429Z" fill="#969BA0"/>
</svg>
