<svg width="24" height="24" viewBox="0 0 24 24" fill="none" xmlns="http://www.w3.org/2000/svg">
<path opacity="0.4" d="M16.19 2H7.81C4.17 2 2 4.17 2 7.81V16.18C2 19.83 4.17 22 7.81 22H16.18C19.82 22 21.99 19.83 21.99 16.19V7.81C22 4.17 19.83 2 16.19 2Z" fill="#969BA0"/>
<path d="M16.83 9.41001C16.7583 9.23827 16.6217 9.10172 16.45 9.03001C16.367 8.99808 16.2789 8.98115 16.19 8.98001H14.33C13.94 8.98001 13.63 9.29001 13.63 9.68001C13.63 10.07 13.94 10.38 14.33 10.38H14.51L12.4 12.49L11.38 10.97C11.3225 10.8845 11.2471 10.8125 11.1591 10.759C11.071 10.7055 10.9724 10.6717 10.87 10.66C10.7676 10.6485 10.6639 10.6605 10.5668 10.6951C10.4698 10.7298 10.3819 10.7862 10.31 10.86L7.33 13.84C7.06 14.11 7.06 14.55 7.33 14.83C7.47 14.97 7.64 15.03 7.82 15.03C8 15.03 8.18 14.96 8.31 14.83L10.69 12.45L11.71 13.97C11.83 14.14 12.01 14.26 12.22 14.28C12.44 14.3 12.63 14.23 12.78 14.08L15.5 11.36V11.54C15.5 11.93 15.81 12.24 16.2 12.24C16.59 12.24 16.9 11.93 16.9 11.54V9.67001C16.88 9.58001 16.87 9.49001 16.83 9.41001Z" fill="#969BA0"/>
</svg>
