<svg width="56" height="28" viewBox="0 0 56 28" fill="none" xmlns="http://www.w3.org/2000/svg">
<rect width="56" height="28" rx="14" fill="#FFEDCB"/>
<path d="M6.94 18V11H9.82C10.44 11 10.97 11.1 11.41 11.3C11.8567 11.5 12.2 11.7867 12.44 12.16C12.68 12.5333 12.8 12.9767 12.8 13.49C12.8 14.0033 12.68 14.4467 12.44 14.82C12.2 15.1933 11.8567 15.48 11.41 15.68C10.97 15.88 10.44 15.98 9.82 15.98H7.66L8.24 15.37V18H6.94ZM8.24 15.51L7.66 14.88H9.76C10.3333 14.88 10.7633 14.76 11.05 14.52C11.3433 14.2733 11.49 13.93 11.49 13.49C11.49 13.0433 11.3433 12.7 11.05 12.46C10.7633 12.22 10.3333 12.1 9.76 12.1H7.66L8.24 11.46V15.51ZM16.4687 18.07C15.8753 18.07 15.3553 17.9533 14.9087 17.72C14.4687 17.48 14.1253 17.1533 13.8787 16.74C13.6387 16.3267 13.5187 15.8567 13.5187 15.33C13.5187 14.7967 13.6353 14.3267 13.8687 13.92C14.1087 13.5067 14.4353 13.1833 14.8487 12.95C15.2687 12.7167 15.7453 12.6 16.2787 12.6C16.7987 12.6 17.262 12.7133 17.6687 12.94C18.0753 13.1667 18.3953 13.4867 18.6287 13.9C18.862 14.3133 18.9787 14.8 18.9787 15.36C18.9787 15.4133 18.9753 15.4733 18.9687 15.54C18.9687 15.6067 18.9653 15.67 18.9587 15.73H14.5087V14.9H18.2987L17.8087 15.16C17.8153 14.8533 17.752 14.5833 17.6187 14.35C17.4853 14.1167 17.302 13.9333 17.0687 13.8C16.842 13.6667 16.5787 13.6 16.2787 13.6C15.972 13.6 15.702 13.6667 15.4687 13.8C15.242 13.9333 15.062 14.12 14.9287 14.36C14.802 14.5933 14.7387 14.87 14.7387 15.19V15.39C14.7387 15.71 14.812 15.9933 14.9587 16.24C15.1053 16.4867 15.312 16.6767 15.5787 16.81C15.8453 16.9433 16.152 17.01 16.4987 17.01C16.7987 17.01 17.0687 16.9633 17.3087 16.87C17.5487 16.7767 17.762 16.63 17.9487 16.43L18.6187 17.2C18.3787 17.48 18.0753 17.6967 17.7087 17.85C17.3487 17.9967 16.9353 18.07 16.4687 18.07ZM23.2094 12.6C23.636 12.6 24.016 12.6833 24.3494 12.85C24.6894 13.0167 24.956 13.2733 25.1494 13.62C25.3427 13.96 25.4394 14.4 25.4394 14.94V18H24.1894V15.1C24.1894 14.6267 24.076 14.2733 23.8494 14.04C23.6294 13.8067 23.3194 13.69 22.9194 13.69C22.626 13.69 22.366 13.75 22.1394 13.87C21.9127 13.99 21.736 14.17 21.6094 14.41C21.4894 14.6433 21.4294 14.94 21.4294 15.3V18H20.1794V12.66H21.3694V14.1L21.1594 13.66C21.346 13.32 21.616 13.06 21.9694 12.88C22.3294 12.6933 22.7427 12.6 23.2094 12.6ZM29.2948 18.07C28.7815 18.07 28.3182 17.9567 27.9048 17.73C27.4982 17.4967 27.1782 17.1767 26.9448 16.77C26.7115 16.3633 26.5948 15.8833 26.5948 15.33C26.5948 14.7767 26.7115 14.2967 26.9448 13.89C27.1782 13.4833 27.4982 13.1667 27.9048 12.94C28.3182 12.7133 28.7815 12.6 29.2948 12.6C29.7415 12.6 30.1415 12.7 30.4948 12.9C30.8482 13.0933 31.1282 13.39 31.3348 13.79C31.5415 14.19 31.6448 14.7033 31.6448 15.33C31.6448 15.95 31.5448 16.4633 31.3448 16.87C31.1448 17.27 30.8682 17.57 30.5148 17.77C30.1615 17.97 29.7548 18.07 29.2948 18.07ZM29.4448 17C29.7448 17 30.0115 16.9333 30.2448 16.8C30.4848 16.6667 30.6748 16.4733 30.8148 16.22C30.9615 15.9667 31.0348 15.67 31.0348 15.33C31.0348 14.9833 30.9615 14.6867 30.8148 14.44C30.6748 14.1867 30.4848 13.9933 30.2448 13.86C30.0115 13.7267 29.7448 13.66 29.4448 13.66C29.1448 13.66 28.8748 13.7267 28.6348 13.86C28.4015 13.9933 28.2115 14.1867 28.0648 14.44C27.9248 14.6867 27.8548 14.9833 27.8548 15.33C27.8548 15.67 27.9248 15.9667 28.0648 16.22C28.2115 16.4733 28.4015 16.6667 28.6348 16.8C28.8748 16.9333 29.1448 17 29.4448 17ZM31.0648 18V16.74L31.1148 15.32L31.0148 13.9V10.58H32.2548V18H31.0648ZM33.9001 18V12.66H35.1501V18H33.9001ZM34.5301 11.78C34.2967 11.78 34.1034 11.7067 33.9501 11.56C33.8034 11.4133 33.7301 11.2367 33.7301 11.03C33.7301 10.8167 33.8034 10.64 33.9501 10.5C34.1034 10.3533 34.2967 10.28 34.5301 10.28C34.7634 10.28 34.9534 10.35 35.1001 10.49C35.2534 10.6233 35.3301 10.7933 35.3301 11C35.3301 11.22 35.2567 11.4067 35.1101 11.56C34.9634 11.7067 34.7701 11.78 34.5301 11.78ZM39.8207 12.6C40.2474 12.6 40.6274 12.6833 40.9607 12.85C41.3007 13.0167 41.5674 13.2733 41.7607 13.62C41.954 13.96 42.0507 14.4 42.0507 14.94V18H40.8007V15.1C40.8007 14.6267 40.6874 14.2733 40.4607 14.04C40.2407 13.8067 39.9307 13.69 39.5307 13.69C39.2374 13.69 38.9774 13.75 38.7507 13.87C38.524 13.99 38.3474 14.17 38.2207 14.41C38.1007 14.6433 38.0407 14.94 38.0407 15.3V18H36.7907V12.66H37.9807V14.1L37.7707 13.66C37.9574 13.32 38.2274 13.06 38.5807 12.88C38.9407 12.6933 39.354 12.6 39.8207 12.6ZM46.0662 20.01C45.5728 20.01 45.0895 19.9433 44.6162 19.81C44.1495 19.6833 43.7662 19.4967 43.4662 19.25L44.0262 18.31C44.2595 18.5033 44.5528 18.6567 44.9062 18.77C45.2662 18.89 45.6295 18.95 45.9962 18.95C46.5828 18.95 47.0128 18.8133 47.2862 18.54C47.5595 18.2733 47.6962 17.87 47.6962 17.33V16.38L47.7962 15.17L47.7562 13.96V12.66H48.9462V17.19C48.9462 18.1567 48.6995 18.8667 48.2062 19.32C47.7128 19.78 46.9995 20.01 46.0662 20.01ZM45.9062 17.76C45.3995 17.76 44.9395 17.6533 44.5262 17.44C44.1195 17.22 43.7962 16.9167 43.5562 16.53C43.3228 16.1433 43.2062 15.69 43.2062 15.17C43.2062 14.6567 43.3228 14.2067 43.5562 13.82C43.7962 13.4333 44.1195 13.1333 44.5262 12.92C44.9395 12.7067 45.3995 12.6 45.9062 12.6C46.3595 12.6 46.7662 12.69 47.1262 12.87C47.4862 13.05 47.7728 13.33 47.9862 13.71C48.2062 14.09 48.3162 14.5767 48.3162 15.17C48.3162 15.7633 48.2062 16.2533 47.9862 16.64C47.7728 17.02 47.4862 17.3033 47.1262 17.49C46.7662 17.67 46.3595 17.76 45.9062 17.76ZM46.0962 16.7C46.4095 16.7 46.6895 16.6367 46.9362 16.51C47.1828 16.3767 47.3728 16.1967 47.5062 15.97C47.6462 15.7367 47.7162 15.47 47.7162 15.17C47.7162 14.87 47.6462 14.6067 47.5062 14.38C47.3728 14.1467 47.1828 13.97 46.9362 13.85C46.6895 13.7233 46.4095 13.66 46.0962 13.66C45.7828 13.66 45.4995 13.7233 45.2462 13.85C44.9995 13.97 44.8062 14.1467 44.6662 14.38C44.5328 14.6067 44.4662 14.87 44.4662 15.17C44.4662 15.47 44.5328 15.7367 44.6662 15.97C44.8062 16.1967 44.9995 16.3767 45.2462 16.51C45.4995 16.6367 45.7828 16.7 46.0962 16.7Z" fill="#FFA500"/>
</svg>
