<svg width="56" height="56" viewBox="0 0 56 56" fill="none" xmlns="http://www.w3.org/2000/svg">
<circle cx="28" cy="28" r="28" fill="#FFF7E1"/>
<rect width="32.8417" height="32.8417" transform="translate(11.5273 11.7242)" fill="#FFF7E1"/>
<path d="M27.6744 26.6398C24.5681 25.8325 23.5692 24.9978 23.5692 23.6978C23.5692 22.2062 24.9513 21.1662 27.2639 21.1662C29.207 21.1662 30.1786 21.9052 30.5344 23.082C30.6986 23.6293 31.1502 24.0399 31.7249 24.0399H32.1354C33.0385 24.0399 33.6817 23.1504 33.367 22.302C32.7922 20.6873 31.4512 19.3462 29.3165 18.8263V17.8821C29.3165 16.7463 28.3997 15.8295 27.2639 15.8295C26.1281 15.8295 25.2113 16.7463 25.2113 17.8821V18.7852C22.5566 19.3599 20.4219 21.0841 20.4219 23.7251C20.4219 26.8861 23.0355 28.4598 26.8534 29.3766C30.2744 30.1977 30.9586 31.4019 30.9586 32.6745C30.9586 33.6187 30.2881 35.1239 27.2639 35.1239C25.006 35.1239 23.8429 34.3166 23.3913 33.1671C23.186 32.6334 22.7208 32.2503 22.1597 32.2503H21.7766C20.8598 32.2503 20.2166 33.1808 20.5587 34.0292C21.3387 35.9313 23.1587 37.0534 25.2113 37.4913V38.4081C25.2113 39.5439 26.1281 40.4607 27.2639 40.4607C28.3997 40.4607 29.3165 39.5439 29.3165 38.4081V37.5186C31.9849 37.0123 34.1059 35.466 34.1059 32.6608C34.1059 28.7745 30.7807 27.4472 27.6744 26.6398Z" fill="#FFC227"/>
</svg>
