<svg width="56" height="56" viewBox="0 0 56 56" fill="none" xmlns="http://www.w3.org/2000/svg">
<circle cx="28" cy="28" r="28" fill="#EFEFFF"/>
<path d="M20.9311 20.2857C20.0786 20.2857 19.261 20.6244 18.6582 21.2272C18.0554 21.83 17.7168 22.6475 17.7168 23.5V24.1429H38.2848V23.5C38.2848 22.6475 37.9462 21.83 37.3434 21.2272C36.7406 20.6244 35.923 20.2857 35.0705 20.2857H20.9311ZM17.7168 32.5V25.4286H38.2848V32.5C38.2848 33.3525 37.9462 34.17 37.3434 34.7728C36.7406 35.3756 35.923 35.7143 35.0705 35.7143H20.9319C20.0795 35.7143 19.2619 35.3756 18.6591 34.7728C18.0563 34.17 17.7177 33.3525 17.7177 32.5H17.7168ZM31.6419 30.1429C31.4714 30.1429 31.3079 30.2106 31.1874 30.3311C31.0668 30.4517 30.9991 30.6152 30.9991 30.7857C30.9991 30.9562 31.0668 31.1197 31.1874 31.2403C31.3079 31.3608 31.4714 31.4286 31.6419 31.4286H34.6419C34.8124 31.4286 34.976 31.3608 35.0965 31.2403C35.2171 31.1197 35.2848 30.9562 35.2848 30.7857C35.2848 30.6152 35.2171 30.4517 35.0965 30.3311C34.976 30.2106 34.8124 30.1429 34.6419 30.1429H31.6419Z" fill="#605BFF"/>
</svg>
