<svg width="56" height="56" viewBox="0 0 56 56" fill="none" xmlns="http://www.w3.org/2000/svg">
<circle cx="28" cy="28" r="28" fill="#F0FFF6"/>
<path opacity="0.4" d="M32.19 18H23.81C20.17 18 18 20.17 18 23.81V32.18C18 35.83 20.17 38 23.81 38H32.18C35.82 38 37.99 35.83 37.99 32.19V23.81C38 20.17 35.83 18 32.19 18Z" fill="#68EB9C"/>
<path d="M32.8295 25.41C32.7577 25.2383 32.6212 25.1017 32.4495 25.03C32.3664 24.9981 32.2784 24.9811 32.1895 24.98H30.3295C29.9395 24.98 29.6295 25.29 29.6295 25.68C29.6295 26.07 29.9395 26.38 30.3295 26.38H30.5095L28.3995 28.49L27.3795 26.97C27.3219 26.8845 27.2466 26.8125 27.1585 26.759C27.0705 26.7055 26.9718 26.6717 26.8695 26.66C26.767 26.6484 26.6633 26.6605 26.5663 26.6951C26.4692 26.7298 26.3814 26.7862 26.3095 26.86L23.3295 29.84C23.0595 30.11 23.0595 30.55 23.3295 30.83C23.4695 30.97 23.6395 31.03 23.8195 31.03C23.9995 31.03 24.1795 30.96 24.3095 30.83L26.6895 28.45L27.7095 29.97C27.8295 30.14 28.0095 30.26 28.2195 30.28C28.4395 30.3 28.6295 30.23 28.7795 30.08L31.4995 27.36V27.54C31.4995 27.93 31.8095 28.24 32.1995 28.24C32.5895 28.24 32.8995 27.93 32.8995 27.54V25.67C32.8795 25.58 32.8695 25.49 32.8295 25.41Z" fill="#68EB9C"/>
</svg>
