<svg width="56" height="56" viewBox="0 0 56 56" fill="none" xmlns="http://www.w3.org/2000/svg">
<circle cx="28" cy="28" r="28" fill="#FFF4F0"/>
<path opacity="0.4" d="M37.3709 27.39V33.38C37.3709 36.14 35.1309 38.38 32.3709 38.38H23.6309C20.8709 38.38 18.6309 36.14 18.6309 33.38V27.46C19.3909 28.28 20.4709 28.75 21.6409 28.75C22.9009 28.75 24.1109 28.12 24.8709 27.11C25.2179 27.6193 25.685 28.0353 26.2308 28.3213C26.7767 28.6073 27.3846 28.7546 28.0009 28.75C29.2809 28.75 30.4209 28.15 31.1109 27.15C31.8809 28.14 33.0709 28.75 34.3109 28.75C35.5209 28.75 36.6209 28.26 37.3709 27.39Z" fill="#FF8F6B"/>
<path d="M30.9894 17.25H24.9894L24.2494 24.61C24.1894 25.29 24.2894 25.93 24.5394 26.51C25.1194 27.87 26.4794 28.75 27.9994 28.75C29.5394 28.75 30.8694 27.89 31.4694 26.52C31.6494 26.09 31.7594 25.59 31.7694 25.08V24.89L30.9894 17.25Z" fill="#FF8F6B"/>
<path opacity="0.6" d="M38.3596 24.27L38.0696 21.5C37.6496 18.48 36.2796 17.25 33.3497 17.25H29.5097L30.2497 24.75C30.2597 24.85 30.2697 24.96 30.2697 25.15C30.3297 25.67 30.4896 26.15 30.7296 26.58C31.4496 27.9 32.8496 28.75 34.3096 28.75C35.6396 28.75 36.8396 28.16 37.5896 27.12C38.1896 26.32 38.4597 25.31 38.3596 24.27ZM22.5897 17.25C19.6497 17.25 18.2896 18.48 17.8596 21.53L17.5896 24.28C17.4896 25.35 17.7797 26.39 18.4097 27.2C19.1697 28.19 20.3396 28.75 21.6396 28.75C23.0996 28.75 24.4997 27.9 25.2097 26.6C25.4697 26.15 25.6396 25.63 25.6896 25.09L26.4697 17.26H22.5897V17.25Z" fill="#FF8F6B"/>
<path d="M27.3492 32.66C26.7352 32.7256 26.1674 33.0164 25.7555 33.4764C25.3436 33.9363 25.1169 34.5326 25.1192 35.15V38.38H30.8692V35.5C30.8792 33.41 29.6492 32.42 27.3492 32.66Z" fill="#FF8F6B"/>
</svg>
