<svg width="56" height="56" viewBox="0 0 56 56" fill="none" xmlns="http://www.w3.org/2000/svg">
<circle cx="28" cy="28" r="28" fill="#FFEAEF"/>
<path d="M37.0697 21.23C35.4597 21.07 33.8497 20.95 32.2297 20.86V20.85L32.0097 19.55C31.8597 18.63 31.6397 17.25 29.2997 17.25H26.6797C24.3497 17.25 24.1297 18.57 23.9697 19.54L23.7597 20.82C22.8297 20.88 21.8997 20.94 20.9697 21.03L18.9297 21.23C18.5097 21.27 18.2097 21.64 18.2497 22.05C18.2897 22.46 18.6497 22.76 19.0697 22.72L21.1097 22.52C26.3497 22 31.6297 22.2 36.9297 22.73H37.0097C37.3897 22.73 37.7197 22.44 37.7597 22.05C37.7747 21.8502 37.7109 21.6525 37.5819 21.4992C37.453 21.346 37.2691 21.2493 37.0697 21.23Z" fill="#B20731"/>
<path opacity="0.399" d="M35.2297 24.14C34.9897 23.89 34.6597 23.75 34.3197 23.75H21.6797C21.3397 23.75 20.9997 23.89 20.7697 24.14C20.5397 24.39 20.4097 24.73 20.4297 25.08L21.0497 35.34C21.1597 36.86 21.2997 38.76 24.7897 38.76H31.2097C34.6997 38.76 34.8398 36.87 34.9497 35.34L35.5697 25.09C35.5897 24.73 35.4597 24.39 35.2297 24.14Z" fill="#B20731"/>
<path fill-rule="evenodd" clip-rule="evenodd" d="M25.58 33C25.58 32.8011 25.659 32.6103 25.7997 32.4697C25.9403 32.329 26.1311 32.25 26.33 32.25H29.66C29.8589 32.25 30.0497 32.329 30.1903 32.4697C30.331 32.6103 30.41 32.8011 30.41 33C30.41 33.1989 30.331 33.3897 30.1903 33.5303C30.0497 33.671 29.8589 33.75 29.66 33.75H26.33C26.1311 33.75 25.9403 33.671 25.7997 33.5303C25.659 33.3897 25.58 33.1989 25.58 33ZM24.75 29C24.75 28.8011 24.829 28.6103 24.9697 28.4697C25.1103 28.329 25.3011 28.25 25.5 28.25H30.5C30.6989 28.25 30.8897 28.329 31.0303 28.4697C31.171 28.6103 31.25 28.8011 31.25 29C31.25 29.1989 31.171 29.3897 31.0303 29.5303C30.8897 29.671 30.6989 29.75 30.5 29.75H25.5C25.3011 29.75 25.1103 29.671 24.9697 29.5303C24.829 29.3897 24.75 29.1989 24.75 29Z" fill="#B20731"/>
</svg>
